# xmcd
#
# Track frame offsets:
#	150
#	13754
#	29200
#	45443
#	58040
#	73988
#	91292
#	104031
#	123185
#	138616
#	154472
#	173466
#	190033
#	207280
#	222609
#	237874
#	253027
#
# Disc length: 3571 seconds
#
# Revision: 1
# Processed by: cddbd v1.5.2PL0 Copyright (c) Steve Scherf et al.
# Submitted via: audiograbber 1.83.01
#
DISCID=020df111
DTITLE=Various Artist - Voicen Kesähitti 2012 [CD1)
DYEAR=1012
DGENRE=Pop
TTITLE0=Loreen - Euphoria
TTITLE1=Cheek - Sokka Irti
TTITLE2=Katy Perry - Part Of Me
TTITLE3=MIchel Teló - Ai Se Eu Te Pego
TTITLE4=Nicki Minaj - Starships (Explicit Version)
TTITLE5=Elokuu - Saatilla (Radio Edit)
TTITLE6=Stig - Ryyppy
TTITLE7=Petri Nygård - Märkää
TTITLE8=Yön Polte - Tyttö Sinä Olet Meritähti
TTITLE9=Tacabro - Tacatá
TTITLE10=The Rasmus - I'm A Mess
TTITLE11=Marina and The Diamonds - Primadonna
TTITLE12=GG Caravan - On Se Hienoo
TTITLE13=LMFAO - Sorry For Party Rocking
TTITLE14=Madonna Feat. Nicki Minaj and M.I.A. - Give Me All Your Luvin'
TTITLE15=Avicii - Levels
TTITLE16=Emeli Sandé - Next To Me
EXTD=TR.
EXTT0=
EXTT1=
EXTT2=
EXTT3=
EXTT4=
EXTT5=
EXTT6=
EXTT7=
EXTT8=
EXTT9=
EXTT10=
EXTT11=
EXTT12=
EXTT13=
EXTT14=
EXTT15=
EXTT16=
PLAYORDER=
